<mxfile host="app.diagrams.net" modified="2022-08-20T17:45:31.371Z" agent="5.0 (Windows NT 10.0; Win64; x64) AppleWebKit/537.36 (KHTML, like Gecko) Chrome/104.0.5112.102 Safari/537.36" etag="ILtawcKqcnxZrztuyqru" version="19.0.3" type="github">
  <diagram id="kJk4uJ9yfwuJy3zpaMZb" name="Page-1">
    <mxGraphModel dx="1209" dy="700" grid="1" gridSize="10" guides="1" tooltips="1" connect="1" arrows="1" fold="1" page="1" pageScale="1" pageWidth="827" pageHeight="1169" math="0" shadow="0">
      <root>
        <mxCell id="0" />
        <mxCell id="1" parent="0" />
        <mxCell id="GbeZwU4aBQHvOexcGolt-1" value="RT-THREAD启动" style="rounded=1;whiteSpace=wrap;html=1;" vertex="1" parent="1">
          <mxGeometry x="350" y="340" width="120" height="60" as="geometry" />
        </mxCell>
        <mxCell id="GbeZwU4aBQHvOexcGolt-2" value="THREAD main" style="rounded=0;whiteSpace=wrap;html=1;" vertex="1" parent="1">
          <mxGeometry x="350" y="440" width="120" height="60" as="geometry" />
        </mxCell>
        <mxCell id="GbeZwU4aBQHvOexcGolt-3" value="buzzer_init" style="rounded=0;whiteSpace=wrap;html=1;" vertex="1" parent="1">
          <mxGeometry x="350" y="540" width="120" height="60" as="geometry" />
        </mxCell>
        <mxCell id="GbeZwU4aBQHvOexcGolt-4" value="THREAD buzzer" style="rounded=0;whiteSpace=wrap;html=1;" vertex="1" parent="1">
          <mxGeometry x="550" y="540" width="120" height="60" as="geometry" />
        </mxCell>
        <mxCell id="GbeZwU4aBQHvOexcGolt-5" value="button_init" style="rounded=0;whiteSpace=wrap;html=1;" vertex="1" parent="1">
          <mxGeometry x="350" y="640" width="120" height="60" as="geometry" />
        </mxCell>
        <mxCell id="GbeZwU4aBQHvOexcGolt-6" value="uart1_init" style="rounded=0;whiteSpace=wrap;html=1;" vertex="1" parent="1">
          <mxGeometry x="350" y="740" width="120" height="60" as="geometry" />
        </mxCell>
        <mxCell id="GbeZwU4aBQHvOexcGolt-7" value="TIMER button" style="rounded=0;whiteSpace=wrap;html=1;" vertex="1" parent="1">
          <mxGeometry x="550" y="640" width="120" height="60" as="geometry" />
        </mxCell>
        <mxCell id="GbeZwU4aBQHvOexcGolt-8" value="THREAD uart1" style="rounded=0;whiteSpace=wrap;html=1;" vertex="1" parent="1">
          <mxGeometry x="550" y="740" width="120" height="60" as="geometry" />
        </mxCell>
        <mxCell id="GbeZwU4aBQHvOexcGolt-9" value="uart0_init" style="rounded=0;whiteSpace=wrap;html=1;" vertex="1" parent="1">
          <mxGeometry x="350" y="840" width="120" height="60" as="geometry" />
        </mxCell>
        <mxCell id="GbeZwU4aBQHvOexcGolt-10" value="THREAD uart0" style="rounded=0;whiteSpace=wrap;html=1;" vertex="1" parent="1">
          <mxGeometry x="550" y="840" width="120" height="60" as="geometry" />
        </mxCell>
        <mxCell id="GbeZwU4aBQHvOexcGolt-11" value="clock_init" style="rounded=0;whiteSpace=wrap;html=1;" vertex="1" parent="1">
          <mxGeometry x="350" y="940" width="120" height="60" as="geometry" />
        </mxCell>
        <mxCell id="GbeZwU4aBQHvOexcGolt-12" value="THREAD clock_sync" style="rounded=0;whiteSpace=wrap;html=1;" vertex="1" parent="1">
          <mxGeometry x="550" y="940" width="120" height="60" as="geometry" />
        </mxCell>
        <mxCell id="GbeZwU4aBQHvOexcGolt-13" value="display_init" style="rounded=0;whiteSpace=wrap;html=1;" vertex="1" parent="1">
          <mxGeometry x="350" y="1040" width="120" height="60" as="geometry" />
        </mxCell>
        <mxCell id="GbeZwU4aBQHvOexcGolt-14" value="THREAD display" style="rounded=0;whiteSpace=wrap;html=1;" vertex="1" parent="1">
          <mxGeometry x="550" y="1040" width="120" height="60" as="geometry" />
        </mxCell>
        <mxCell id="GbeZwU4aBQHvOexcGolt-19" value="" style="endArrow=classic;html=1;rounded=0;exitX=0.5;exitY=1;exitDx=0;exitDy=0;" edge="1" parent="1">
          <mxGeometry width="50" height="50" relative="1" as="geometry">
            <mxPoint x="410" y="599" as="sourcePoint" />
            <mxPoint x="410" y="639" as="targetPoint" />
          </mxGeometry>
        </mxCell>
        <mxCell id="GbeZwU4aBQHvOexcGolt-20" value="" style="endArrow=classic;html=1;rounded=0;exitX=0.5;exitY=1;exitDx=0;exitDy=0;" edge="1" parent="1">
          <mxGeometry width="50" height="50" relative="1" as="geometry">
            <mxPoint x="409.5" y="700" as="sourcePoint" />
            <mxPoint x="409.5" y="740" as="targetPoint" />
          </mxGeometry>
        </mxCell>
        <mxCell id="GbeZwU4aBQHvOexcGolt-21" value="" style="endArrow=classic;html=1;rounded=0;exitX=0.5;exitY=1;exitDx=0;exitDy=0;" edge="1" parent="1">
          <mxGeometry width="50" height="50" relative="1" as="geometry">
            <mxPoint x="410" y="800" as="sourcePoint" />
            <mxPoint x="410" y="840" as="targetPoint" />
          </mxGeometry>
        </mxCell>
        <mxCell id="GbeZwU4aBQHvOexcGolt-22" value="" style="endArrow=classic;html=1;rounded=0;exitX=0.5;exitY=1;exitDx=0;exitDy=0;" edge="1" parent="1">
          <mxGeometry width="50" height="50" relative="1" as="geometry">
            <mxPoint x="409.5" y="900" as="sourcePoint" />
            <mxPoint x="409.5" y="940" as="targetPoint" />
          </mxGeometry>
        </mxCell>
        <mxCell id="GbeZwU4aBQHvOexcGolt-23" value="" style="endArrow=classic;html=1;rounded=0;exitX=0.5;exitY=1;exitDx=0;exitDy=0;" edge="1" parent="1">
          <mxGeometry width="50" height="50" relative="1" as="geometry">
            <mxPoint x="409.5" y="1000" as="sourcePoint" />
            <mxPoint x="409.5" y="1040" as="targetPoint" />
          </mxGeometry>
        </mxCell>
        <mxCell id="GbeZwU4aBQHvOexcGolt-26" value="" style="endArrow=classic;html=1;rounded=0;exitX=0.5;exitY=1;exitDx=0;exitDy=0;entryX=0.5;entryY=0;entryDx=0;entryDy=0;" edge="1" parent="1" source="GbeZwU4aBQHvOexcGolt-2" target="GbeZwU4aBQHvOexcGolt-3">
          <mxGeometry width="50" height="50" relative="1" as="geometry">
            <mxPoint x="390" y="820" as="sourcePoint" />
            <mxPoint x="440" y="770" as="targetPoint" />
          </mxGeometry>
        </mxCell>
      </root>
    </mxGraphModel>
  </diagram>
</mxfile>
